<svg width="1425" height="401" viewBox="0 0 1425 401" fill="none" xmlns="http://www.w3.org/2000/svg">
<path d="M616 147.637C603.694 126.47 566.38 101.633 536.658 86.2816C517.578 76.4274 496.078 73.342 474.604 73.342H-86" stroke="url(#paint0_linear_84_979)" stroke-width="2"/>
<path d="M590.5 165.734C573.5 154.463 527 131.349 477 129.063H-51" stroke="url(#paint1_linear_84_979)" stroke-width="2"/>
<path d="M606.5 270.508C589.5 281.78 543 304.893 493 307.179H-35" stroke="url(#paint2_linear_84_979)" stroke-width="2"/>
<path d="M585.5 210.501C568.5 199.23 524 190.88 474 188.594H-54" stroke="url(#paint3_linear_84_979)" stroke-width="2"/>
<path d="M590.5 229.551C573.5 240.822 529 249.173 479 251.458H-49" stroke="url(#paint4_linear_84_979)" stroke-width="2"/>
<path d="M827 274.318C839.306 295.485 876.62 320.322 906.342 335.673C925.422 345.527 946.922 348.613 968.396 348.613H1529" stroke="url(#paint5_linear_84_979)" stroke-width="2"/>
<path d="M843 128.587C855.306 107.42 892.62 82.5827 922.342 67.2318C941.422 57.3776 962.922 54.2922 984.396 54.2922H1545" stroke="url(#paint6_linear_84_979)" stroke-width="2"/>
<path d="M868.5 146.684C885.5 135.413 932 112.299 982 110.013H1510" stroke="url(#paint7_linear_84_979)" stroke-width="2"/>
<path d="M852.5 251.458C869.5 262.73 916 285.843 966 288.129H1494" stroke="url(#paint8_linear_84_979)" stroke-width="2"/>
<path d="M873.5 191.451C890.5 180.18 935 171.83 985 169.544H1513" stroke="url(#paint9_linear_84_979)" stroke-width="2"/>
<path d="M868.5 210.501C885.5 221.772 930 230.122 980 232.408H1508" stroke="url(#paint10_linear_84_979)" stroke-width="2"/>
<path d="M875.28 201.923C875.28 289.347 800.864 360.276 708.994 360.276C617.124 360.276 542.708 289.347 542.708 201.923C542.708 114.499 617.124 43.5699 708.994 43.5699C800.864 43.5699 875.28 114.499 875.28 201.923Z" fill="#3D2E50" fill-opacity="0.6" stroke="#8A67B5" stroke-width="1.4152"/>
<path d="M919.292 200.5C919.292 310.81 825.398 400.292 709.5 400.292C593.602 400.292 499.708 310.81 499.708 200.5C499.708 90.1898 593.602 0.7076 709.5 0.7076C825.398 0.7076 919.292 90.1898 919.292 200.5Z" stroke="#46438B" stroke-width="1.4152"/>
<path d="M837.069 201.249C837.069 268.2 780.077 322.533 709.701 322.533C639.324 322.533 582.333 268.2 582.333 201.249C582.333 134.298 639.324 79.9652 709.701 79.9652C780.077 79.9652 837.069 134.298 837.069 201.249Z" fill="url(#paint11_linear_84_979)" fill-opacity="0.8" stroke="#8A67B5" stroke-width="1.4152"/>
<path d="M797.858 201.923C797.858 249.145 757.657 287.485 707.993 287.485C658.329 287.485 618.128 249.145 618.128 201.923C618.128 154.7 658.329 116.36 707.993 116.36C757.657 116.36 797.858 154.7 797.858 201.923Z" fill="url(#paint12_linear_84_979)" stroke="#A398B0" stroke-width="1.4152"/>
<g filter="url(#filter0_di_84_979)">
<path d="M639.023 206.422V209.209L627.781 203.954C627.21 203.703 626.959 203.223 626.959 202.743C626.959 202.24 627.21 201.783 627.781 201.509L639.023 196.254V199.042L631.049 202.743L639.023 206.422ZM647.964 194.312H650.751L642.914 211.311H639.967L647.964 194.312ZM669.959 209.072L667.515 204.754C666.189 202.4 665.573 201.258 665.047 200.161C664.567 201.258 663.95 202.377 662.625 204.731L660.18 209.072C659.632 210.054 658.81 210.694 657.576 210.694C656.388 210.694 655.337 210.009 654.925 208.592L651.041 195.157H655.771L657.21 200.481C657.69 202.195 658.01 203.451 658.238 204.685C658.741 203.611 659.335 202.446 660.386 200.458L662.442 196.62C663.242 195.112 664.019 194.906 665.138 194.906C666.281 194.906 667.081 195.112 667.88 196.62L669.914 200.481C671.056 202.583 671.582 203.657 672.061 204.685C672.313 203.474 672.656 202.172 673.113 200.481L674.552 195.157H679.167L675.215 208.592C674.803 210.009 673.752 210.694 672.564 210.694C671.353 210.694 670.531 210.077 669.959 209.072ZM685.719 206.513H698.72L695.681 210.443H680.967V195.157H698.674L695.613 199.133H685.719V200.961H697.829L695.11 204.434H685.719V206.513ZM717.585 202.583C718.91 202.972 719.984 204.16 719.984 205.987C719.984 208.524 718.59 210.443 713.769 210.443H700.334V201.144H713.86C714.546 201.144 715.186 200.892 715.186 200.115C715.186 199.361 714.523 199.133 713.86 199.133H700.334L703.533 195.157H713.655C717.311 195.157 719.664 196.574 719.664 199.384C719.664 201.189 718.636 202.195 717.585 202.583ZM713.792 204.411H705.087V206.513H713.792C714.82 206.513 715.254 206.147 715.254 205.439C715.254 204.777 714.82 204.411 713.792 204.411ZM739.575 209.072L737.13 204.754C735.805 202.4 735.188 201.258 734.663 200.161C734.183 201.258 733.566 202.377 732.241 204.731L729.796 209.072C729.248 210.054 728.425 210.694 727.191 210.694C726.003 210.694 724.952 210.009 724.541 208.592L720.657 195.157H725.386L726.826 200.481C727.306 202.195 727.625 203.451 727.854 204.685C728.357 203.611 728.951 202.446 730.002 200.458L732.058 196.62C732.858 195.112 733.635 194.906 734.754 194.906C735.897 194.906 736.696 195.112 737.496 196.62L739.529 200.481C740.672 202.583 741.197 203.657 741.677 204.685C741.928 203.474 742.271 202.172 742.728 200.481L744.168 195.157H748.783L744.83 208.592C744.419 210.009 743.368 210.694 742.18 210.694C740.969 210.694 740.146 210.077 739.575 209.072ZM755.381 195.157V210.443H750.651V195.157H755.381ZM777.243 206.513L774.387 210.443H759.902C758.713 210.443 757.708 209.757 757.708 208.524C757.708 207.815 758.097 207.13 758.736 206.627L764.311 202.24C766.847 200.207 767.944 199.453 768.515 199.042C767.693 199.11 766.299 199.133 763.26 199.133H757.137L760.153 195.157H774.25C775.438 195.157 776.444 195.843 776.444 197.077C776.444 197.762 776.055 198.47 775.416 198.95L769.772 203.428C767.259 205.416 766.208 206.193 765.614 206.604C766.368 206.559 769.292 206.513 771.691 206.513H777.243ZM778.395 209.209V206.422L786.369 202.743L778.395 199.042V196.254L789.637 201.509C790.185 201.783 790.459 202.24 790.459 202.743C790.459 203.223 790.185 203.703 789.637 203.954L778.395 209.209Z" fill="white"/>
</g>
<defs>
<filter id="filter0_di_84_979" x="626.144" y="194.286" width="165.13" height="18.6285" filterUnits="userSpaceOnUse" color-interpolation-filters="sRGB">
<feFlood flood-opacity="0" result="BackgroundImageFix"/>
<feColorMatrix in="SourceAlpha" type="matrix" values="0 0 0 0 0 0 0 0 0 0 0 0 0 0 0 0 0 0 127 0" result="hardAlpha"/>
<feOffset dy="0.788469"/>
<feGaussianBlur stdDeviation="0.407376"/>
<feComposite in2="hardAlpha" operator="out"/>
<feColorMatrix type="matrix" values="0 0 0 0 1 0 0 0 0 0.966667 0 0 0 0 0.966667 0 0 0 0.96 0"/>
<feBlend mode="normal" in2="BackgroundImageFix" result="effect1_dropShadow_84_979"/>
<feBlend mode="normal" in="SourceGraphic" in2="effect1_dropShadow_84_979" result="shape"/>
<feColorMatrix in="SourceAlpha" type="matrix" values="0 0 0 0 0 0 0 0 0 0 0 0 0 0 0 0 0 0 127 0" result="hardAlpha"/>
<feOffset dx="0.262823" dy="1.05129"/>
<feGaussianBlur stdDeviation="1.07757"/>
<feComposite in2="hardAlpha" operator="arithmetic" k2="-1" k3="1"/>
<feColorMatrix type="matrix" values="0 0 0 0 0.56 0 0 0 0 0 0 0 0 0 1 0 0 0 0.38 0"/>
<feBlend mode="normal" in2="shape" result="effect2_innerShadow_84_979"/>
</filter>
<linearGradient id="paint0_linear_84_979" x1="-93" y1="119.3" x2="604" y2="119.3" gradientUnits="userSpaceOnUse">
<stop stop-color="white" stop-opacity="0"/>
<stop offset="0.43106" stop-color="white" stop-opacity="0.29"/>
<stop offset="0.678981" stop-color="#5A3779"/>
<stop offset="1" stop-color="#161638"/>
</linearGradient>
<linearGradient id="paint1_linear_84_979" x1="-57.3967" y1="151.747" x2="579.534" y2="151.747" gradientUnits="userSpaceOnUse">
<stop stop-color="white" stop-opacity="0"/>
<stop offset="0.43106" stop-color="white" stop-opacity="0.29"/>
<stop offset="0.678981" stop-color="#5A3779"/>
<stop offset="1" stop-color="#161638"/>
</linearGradient>
<linearGradient id="paint2_linear_84_979" x1="-41.3967" y1="284.495" x2="595.534" y2="284.495" gradientUnits="userSpaceOnUse">
<stop stop-color="white" stop-opacity="0"/>
<stop offset="0.43106" stop-color="white" stop-opacity="0.29"/>
<stop offset="0.678981" stop-color="#5A3779"/>
<stop offset="1" stop-color="#161638"/>
</linearGradient>
<linearGradient id="paint3_linear_84_979" x1="-60.3768" y1="202.145" x2="574.568" y2="202.145" gradientUnits="userSpaceOnUse">
<stop stop-color="white" stop-opacity="0"/>
<stop offset="0.43106" stop-color="white" stop-opacity="0.29"/>
<stop offset="0.678981" stop-color="#5A3779"/>
<stop offset="1" stop-color="#161638"/>
</linearGradient>
<linearGradient id="paint4_linear_84_979" x1="-55.3768" y1="237.907" x2="579.568" y2="237.907" gradientUnits="userSpaceOnUse">
<stop stop-color="white" stop-opacity="0"/>
<stop offset="0.43106" stop-color="white" stop-opacity="0.29"/>
<stop offset="0.678981" stop-color="#5A3779"/>
<stop offset="1" stop-color="#161638"/>
</linearGradient>
<linearGradient id="paint5_linear_84_979" x1="1536" y1="302.655" x2="839" y2="302.655" gradientUnits="userSpaceOnUse">
<stop stop-color="white" stop-opacity="0"/>
<stop offset="0.43106" stop-color="white" stop-opacity="0.29"/>
<stop offset="0.678981" stop-color="#5A3779"/>
<stop offset="1" stop-color="#161638"/>
</linearGradient>
<linearGradient id="paint6_linear_84_979" x1="1552" y1="100.25" x2="855" y2="100.25" gradientUnits="userSpaceOnUse">
<stop stop-color="white" stop-opacity="0"/>
<stop offset="0.43106" stop-color="white" stop-opacity="0.29"/>
<stop offset="0.678981" stop-color="#5A3779"/>
<stop offset="1" stop-color="#161638"/>
</linearGradient>
<linearGradient id="paint7_linear_84_979" x1="1516.4" y1="132.698" x2="879.466" y2="132.698" gradientUnits="userSpaceOnUse">
<stop stop-color="white" stop-opacity="0"/>
<stop offset="0.43106" stop-color="white" stop-opacity="0.29"/>
<stop offset="0.678981" stop-color="#5A3779"/>
<stop offset="1" stop-color="#161638"/>
</linearGradient>
<linearGradient id="paint8_linear_84_979" x1="1500.4" y1="265.445" x2="863.466" y2="265.445" gradientUnits="userSpaceOnUse">
<stop stop-color="white" stop-opacity="0"/>
<stop offset="0.43106" stop-color="white" stop-opacity="0.29"/>
<stop offset="0.678981" stop-color="#5A3779"/>
<stop offset="1" stop-color="#161638"/>
</linearGradient>
<linearGradient id="paint9_linear_84_979" x1="1519.38" y1="183.096" x2="884.432" y2="183.096" gradientUnits="userSpaceOnUse">
<stop stop-color="white" stop-opacity="0"/>
<stop offset="0.43106" stop-color="white" stop-opacity="0.29"/>
<stop offset="0.678981" stop-color="#5A3779"/>
<stop offset="1" stop-color="#161638"/>
</linearGradient>
<linearGradient id="paint10_linear_84_979" x1="1514.38" y1="218.857" x2="879.432" y2="218.857" gradientUnits="userSpaceOnUse">
<stop stop-color="white" stop-opacity="0"/>
<stop offset="0.43106" stop-color="white" stop-opacity="0.29"/>
<stop offset="0.678981" stop-color="#5A3779"/>
<stop offset="1" stop-color="#161638"/>
</linearGradient>
<linearGradient id="paint11_linear_84_979" x1="817" y1="134.778" x2="583.554" y2="207.444" gradientUnits="userSpaceOnUse">
<stop stop-color="#320268" stop-opacity="0.46"/>
<stop offset="1" stop-color="#A57DC4" stop-opacity="0.74"/>
</linearGradient>
<linearGradient id="paint12_linear_84_979" x1="707.993" y1="115.653" x2="707.993" y2="288.193" gradientUnits="userSpaceOnUse">
<stop stop-color="#8A5AC1" stop-opacity="0.51"/>
<stop offset="1" stop-color="#603A9A" stop-opacity="0.28"/>
</linearGradient>
</defs>
</svg>
